name C:\Users\antoi\Documents\MyRepositories\predictsim_mtp\Results\Case_40\GRF.mot
datacolumns 19
datarows 10
range 0.27816714 0.32823722
endheader 
time	r_ground_force_vx	r_ground_force_vy	r_ground_force_vz	r_ground_force_px	r_ground_force_py	r_ground_force_pz	l_ground_force_vx	l_ground_force_vy	l_ground_force_vz	l_ground_force_px	l_ground_force_py	l_ground_force_pz	r_ground_torque_x	r_ground_torque_y	r_ground_torque_z	l_ground_torque_x	l_ground_torque_y	l_ground_torque_z	
          0.27816714	        -13.50783471	        527.40667181	        -16.60298731	          0.33405136	          0.00000000	          0.04208236	          0.00000000	          0.00000000	          0.00000000	          0.00000000	          0.00000000	          0.00000000	          0.00000000	         -1.41186078	          0.00000000	          0.00000000	          0.00000000	          0.00000000	
          0.28373048	        -12.09904945	        523.64642102	        -16.26788431	          0.33676308	          0.00000000	          0.04223804	          0.00000000	          0.00000000	          0.00000000	          0.00000000	          0.00000000	          0.00000000	          0.00000000	         -1.09218733	          0.00000000	          0.00000000	          0.00000000	          0.00000000	
          0.28929382	        -10.69927439	        519.85927435	        -15.90108910	          0.33944973	          0.00000000	          0.04240335	          0.00000000	          0.00000000	          0.00000000	          0.00000000	          0.00000000	          0.00000000	          0.00000000	         -0.80284872	          0.00000000	          0.00000000	          0.00000000	          0.00000000	
          0.29485717	         -9.20692636	        516.19229746	        -15.50893079	          0.34213009	          0.00000000	          0.04257624	          0.00000000	          0.00000000	          0.00000000	          0.00000000	          0.00000000	          0.00000000	          0.00000000	         -0.54363370	          0.00000000	          0.00000000	          0.00000000	          0.00000000	
          0.30042051	         -7.54651718	        512.68908411	        -15.10298132	          0.34481735	          0.00000000	          0.04275568	          0.00000000	          0.00000000	          0.00000000	          0.00000000	          0.00000000	          0.00000000	          0.00000000	         -0.31389621	          0.00000000	          0.00000000	          0.00000000	          0.00000000	
          0.30598385	         -5.73337450	        509.41593337	        -14.70676982	          0.34751685	          0.00000000	          0.04294133	          0.00000000	          0.00000000	          0.00000000	          0.00000000	          0.00000000	          0.00000000	          0.00000000	         -0.11288093	          0.00000000	          0.00000000	          0.00000000	          0.00000000	
          0.31154720	         -3.87167025	        506.51681796	        -14.33237386	          0.35022651	          0.00000000	          0.04313350	          0.00000000	          0.00000000	          0.00000000	          0.00000000	          0.00000000	          0.00000000	          0.00000000	          0.06007630	          0.00000000	          0.00000000	          0.00000000	          0.00000000	
          0.31711054	         -2.00331100	        504.10999527	        -14.00612672	          0.35293834	          0.00000000	          0.04333297	          0.00000000	          0.00000000	          0.00000000	          0.00000000	          0.00000000	          0.00000000	          0.00000000	          0.20905534	          0.00000000	          0.00000000	          0.00000000	          0.00000000	
          0.32267388	         -0.16632925	        502.27714869	        -13.70077095	          0.35564165	          0.00000000	          0.04354019	          0.00000000	          0.00000000	          0.00000000	          0.00000000	          0.00000000	          0.00000000	          0.00000000	          0.34510369	          0.00000000	          0.00000000	          0.00000000	          0.00000000	
          0.32823722	          1.54725862	        501.11678150	        -13.36049336	          0.35832098	          0.00000000	          0.04375660	          0.00000000	          0.00000000	          0.00000000	          0.00000000	          0.00000000	          0.00000000	          0.00000000	          0.47340183	          0.00000000	          0.00000000	          0.00000000	          0.00000000	
